<?xml version="1.0" encoding="UTF-8" standalone="no"?>
<svg
   xmlns:dc="http://purl.org/dc/elements/1.1/"
   xmlns:cc="http://creativecommons.org/ns#"
   xmlns:rdf="http://www.w3.org/1999/02/22-rdf-syntax-ns#"
   xmlns:svg="http://www.w3.org/2000/svg"
   xmlns="http://www.w3.org/2000/svg"
   xmlns:sodipodi="http://sodipodi.sourceforge.net/DTD/sodipodi-0.dtd"
   xmlns:inkscape="http://www.inkscape.org/namespaces/inkscape"
   inkscape:version="1.0 (4035a4fb49, 2020-05-01)"
   sodipodi:docname="mastodon.svg"
   xml:space="preserve"
   style="enable-background:new      0 0 97.637 97.637;"
   viewBox="0 0 417.8 512"
   height="97.637px"
   width="97.637px"
   y="0px"
   x="0px"
   id="Capa_1"
   version="1.1"><metadata
   id="metadata1099"><rdf:RDF><cc:Work
       rdf:about=""><dc:format>image/svg+xml</dc:format><dc:type
         rdf:resource="http://purl.org/dc/dcmitype/StillImage" /></cc:Work></rdf:RDF></metadata><defs
   id="defs1097"><filter
     height="1.0046383"
     y="-0.0023191661"
     width="1.0049733"
     x="-0.0024866723"
     id="filter1101"
     style="color-interpolation-filters:sRGB"
     inkscape:collect="always"><feGaussianBlur
       id="feGaussianBlur1103"
       stdDeviation="0.43298031"
       inkscape:collect="always" /></filter></defs><sodipodi:namedview
   inkscape:current-layer="Capa_1"
   inkscape:window-maximized="1"
   inkscape:window-y="0"
   inkscape:window-x="0"
   inkscape:cy="48.818501"
   inkscape:cx="48.818501"
   inkscape:zoom="8.3882134"
   showgrid="false"
   id="namedview1095"
   inkscape:window-height="1016"
   inkscape:window-width="1920"
   inkscape:pageshadow="2"
   inkscape:pageopacity="0"
   guidetolerance="10"
   gridtolerance="10"
   objecttolerance="10"
   borderopacity="1"
   bordercolor="#666666"
   pagecolor="#ffffff" />
    <g
   style="opacity:0.992;fill:#f9f9f9;fill-opacity:1;filter:url(#filter1101)"
   id="g1092">
        <path
   style="fill:#f9f9f9;fill-opacity:1"
   id="path1090"
   d="M 417.8,179.1 C 417.8,81.9 354.1,53.4 354.1,53.4 291.6,24.7 125.6,25 63.7,53.4 63.7,53.4 0,81.9 0,179.1 c 0,115.7 -6.6,259.4 105.6,289.1 40.5,10.7 75.3,13 103.3,11.4 50.8,-2.8 79.3,-18.1 79.3,-18.1 l -1.7,-36.9 c 0,0 -36.3,11.4 -77.1,10.1 -40.4,-1.4 -83,-4.4 -89.6,-54 -0.6,-4.4 -0.9,-9 -0.9,-13.9 85.6,20.9 158.6,9.1 178.7,6.7 56.1,-6.7 105,-41.3 111.2,-72.9 9.8,-49.8 9,-121.5 9,-121.5 z M 342.7,304.3 H 296.1 V 190.1 c 0,-49.7 -64,-51.6 -64,6.9 v 62.5 H 185.8 V 197 c 0,-58.5 -64,-56.6 -64,-6.9 V 304.3 H 75.1 c 0,-122.1 -5.2,-147.9 18.4,-175 25.9,-28.9 79.8,-30.8 103.8,6.1 l 11.6,19.5 11.6,-19.5 c 24.1,-37.1 78.1,-34.8 103.8,-6.1 23.7,27.3 18.4,53 18.4,175 z" />
    </g>
</svg>
