<?xml version="1.0" encoding="UTF-8" standalone="no"?>
<svg
   xmlns:dc="http://purl.org/dc/elements/1.1/"
   xmlns:cc="http://creativecommons.org/ns#"
   xmlns:rdf="http://www.w3.org/1999/02/22-rdf-syntax-ns#"
   xmlns:svg="http://www.w3.org/2000/svg"
   xmlns="http://www.w3.org/2000/svg"
   xmlns:sodipodi="http://sodipodi.sourceforge.net/DTD/sodipodi-0.dtd"
   xmlns:inkscape="http://www.inkscape.org/namespaces/inkscape"
   inkscape:version="1.0 (4035a4fb49, 2020-05-01)"
   sodipodi:docname="vkontakte.svg"
   xml:space="preserve"
   style="enable-background:new 0 0 96.496 96.496;"
   viewBox="0 0 96.496 96.496"
   height="96.496px"
   width="96.496px"
   y="0px"
   x="0px"
   id="Capa_1"
   version="1.1"><metadata
   id="metadata937"><rdf:RDF><cc:Work
       rdf:about=""><dc:format>image/svg+xml</dc:format><dc:type
         rdf:resource="http://purl.org/dc/dcmitype/StillImage" /></cc:Work></rdf:RDF></metadata><defs
   id="defs935" /><sodipodi:namedview
   inkscape:current-layer="Capa_1"
   inkscape:window-maximized="1"
   inkscape:window-y="0"
   inkscape:window-x="0"
   inkscape:cy="48.248001"
   inkscape:cx="48.248001"
   inkscape:zoom="8.4873982"
   showgrid="false"
   id="namedview933"
   inkscape:window-height="1016"
   inkscape:window-width="1920"
   inkscape:pageshadow="2"
   inkscape:pageopacity="0"
   guidetolerance="10"
   gridtolerance="10"
   objecttolerance="10"
   borderopacity="1"
   bordercolor="#666666"
   pagecolor="#ffffff" />
    <g
   style="fill:#f9f9f9;fill-opacity:1"
   id="g930">
        <path
   style="fill:#f9f9f9;fill-opacity:1"
   id="path928"
   d="m 92.499,65.178 c -2.873,-3.446 -6.254,-6.387 -9.453,-9.51 -2.886,-2.815 -3.068,-4.448 -0.748,-7.697 2.532,-3.546 5.255,-6.956 7.81,-10.486 2.385,-3.299 4.823,-6.589 6.078,-10.539 0.796,-2.513 0.092,-3.623 -2.485,-4.063 -0.444,-0.077 -0.903,-0.081 -1.355,-0.081 L 77.057,22.784 c -1.883,-0.028 -2.924,0.793 -3.59,2.462 -0.899,2.256 -1.826,4.51 -2.897,6.687 -2.43,4.936 -5.144,9.707 -8.949,13.747 -0.839,0.891 -1.767,2.017 -3.169,1.553 -1.754,-0.64 -2.271,-3.53 -2.242,-4.507 L 56.195,25.079 c -0.34,-2.521 -0.899,-3.645 -3.402,-4.135 l -15.882,0.003 c -2.12,0 -3.183,0.819 -4.315,2.145 -0.653,0.766 -0.85,1.263 0.492,1.517 2.636,0.5 4.121,2.206 4.515,4.849 0.632,4.223 0.588,8.463 0.224,12.703 -0.107,1.238 -0.32,2.473 -0.811,3.629 -0.768,1.817 -2.008,2.187 -3.637,1.069 -1.475,-1.012 -2.511,-2.44 -3.525,-3.874 C 26.045,37.603 23.006,31.799 20.528,25.7 19.812,23.938 18.577,22.87 16.71,22.841 12.123,22.768 7.535,22.756 2.948,22.845 c -2.76,0.052 -3.583,1.392 -2.459,3.894 4.996,11.113 10.557,21.917 17.816,31.759 3.727,5.051 8.006,9.51 13.534,12.67 6.265,3.582 13.009,4.66 20.112,4.328 3.326,-0.156 4.325,-1.021 4.479,-4.336 0.104,-2.268 0.361,-4.523 1.48,-6.561 1.098,-2 2.761,-2.381 4.678,-1.137 0.959,0.623 1.767,1.416 2.53,2.252 1.872,2.048 3.677,4.158 5.62,6.137 2.437,2.48 5.324,3.945 8.954,3.646 L 93.744,75.5 c 2.264,-0.148 3.438,-2.924 2.138,-5.451 -0.913,-1.77 -2.111,-3.346 -3.383,-4.871 z" />
    </g>
</svg>
