<?xml version="1.0" encoding="UTF-8" standalone="no"?>
<svg
   xmlns:dc="http://purl.org/dc/elements/1.1/"
   xmlns:cc="http://creativecommons.org/ns#"
   xmlns:rdf="http://www.w3.org/1999/02/22-rdf-syntax-ns#"
   xmlns:svg="http://www.w3.org/2000/svg"
   xmlns="http://www.w3.org/2000/svg"
   xmlns:sodipodi="http://sodipodi.sourceforge.net/DTD/sodipodi-0.dtd"
   xmlns:inkscape="http://www.inkscape.org/namespaces/inkscape"
   inkscape:version="1.0 (4035a4fb49, 2020-05-01)"
   sodipodi:docname="wordpress.svg"
   xml:space="preserve"
   style="enable-background:new 0 0 96.24 96.24;"
   viewBox="0 0 96.24 96.24"
   height="96.24px"
   width="96.24px"
   y="0px"
   x="0px"
   id="Capa_1"
   version="1.1"><metadata
   id="metadata1045"><rdf:RDF><cc:Work
       rdf:about=""><dc:format>image/svg+xml</dc:format><dc:type
         rdf:resource="http://purl.org/dc/dcmitype/StillImage" /></cc:Work></rdf:RDF></metadata><defs
   id="defs1043" /><sodipodi:namedview
   inkscape:current-layer="Capa_1"
   inkscape:window-maximized="1"
   inkscape:window-y="0"
   inkscape:window-x="0"
   inkscape:cy="48.119999"
   inkscape:cx="48.119999"
   inkscape:zoom="8.5099753"
   showgrid="false"
   id="namedview1041"
   inkscape:window-height="1016"
   inkscape:window-width="1920"
   inkscape:pageshadow="2"
   inkscape:pageopacity="0"
   guidetolerance="10"
   gridtolerance="10"
   objecttolerance="10"
   borderopacity="1"
   bordercolor="#666666"
   pagecolor="#ffffff" />
    <g
   style="fill:#f9f9f9;fill-opacity:1"
   id="g1038">
        <path
   style="fill:#f9f9f9;fill-opacity:1"
   id="path1036"
   d="M 48.122,0 C 21.587,0 0.001,21.585 0.001,48.118 c 0,26.535 21.587,48.122 48.12,48.122 26.532,0 48.117,-21.587 48.117,-48.122 C 96.239,21.586 74.654,0 48.122,0 Z M 4.857,48.118 c 0,-6.271 1.345,-12.227 3.746,-17.606 L 29.241,87.056 C 14.81,80.042 4.857,65.243 4.857,48.118 Z m 43.265,43.267 c -4.247,0 -8.346,-0.623 -12.222,-1.763 L 48.88,51.903 62.181,88.336 c 0.086,0.215 0.191,0.411 0.308,0.596 -4.497,1.582 -9.329,2.453 -14.367,2.453 z m 5.961,-63.551 c 2.604,-0.137 4.953,-0.412 4.953,-0.412 2.33,-0.276 2.057,-3.701 -0.277,-3.564 0,0 -7.007,0.549 -11.532,0.549 -4.25,0 -11.396,-0.549 -11.396,-0.549 -2.332,-0.137 -2.604,3.427 -0.273,3.564 0,0 2.208,0.275 4.537,0.412 l 6.74,18.469 -9.468,28.395 -15.752,-46.863 c 2.608,-0.136 4.952,-0.412 4.952,-0.412 2.33,-0.275 2.055,-3.702 -0.278,-3.562 0,0 -7.004,0.549 -11.53,0.549 -0.813,0 -1.77,-0.021 -2.784,-0.052 7.734,-11.747 21.033,-19.502 36.147,-19.502 11.265,0 21.519,4.306 29.215,11.357 -0.187,-0.01 -0.368,-0.035 -0.562,-0.035 -4.248,0 -7.264,3.702 -7.264,7.679 0,3.564 2.055,6.582 4.248,10.146 1.647,2.882 3.567,6.585 3.567,11.932 0,3.704 -1.422,8 -3.293,13.986 L 69.718,74.342 Z M 69.871,85.516 83.086,47.308 c 2.471,-6.171 3.29,-11.106 3.29,-15.497 0,-1.591 -0.104,-3.07 -0.292,-4.449 3.38,6.163 5.303,13.236 5.301,20.758 -0.001,15.96 -8.653,29.896 -21.514,37.396 z" />
    </g>
</svg>
