<?xml version="1.0" encoding="UTF-8" standalone="no"?>
<svg
   xmlns:dc="http://purl.org/dc/elements/1.1/"
   xmlns:cc="http://creativecommons.org/ns#"
   xmlns:rdf="http://www.w3.org/1999/02/22-rdf-syntax-ns#"
   xmlns:svg="http://www.w3.org/2000/svg"
   xmlns="http://www.w3.org/2000/svg"
   xmlns:sodipodi="http://sodipodi.sourceforge.net/DTD/sodipodi-0.dtd"
   xmlns:inkscape="http://www.inkscape.org/namespaces/inkscape"
   inkscape:version="1.0 (4035a4fb49, 2020-05-01)"
   sodipodi:docname="youtube.svg"
   xml:space="preserve"
   style="enable-background:new 0 0 96.875 96.875;"
   viewBox="0 0 96.875 96.875"
   height="96.875px"
   width="96.875px"
   y="0px"
   x="0px"
   id="Capa_1"
   version="1.1"><metadata
   id="metadata991"><rdf:RDF><cc:Work
       rdf:about=""><dc:format>image/svg+xml</dc:format><dc:type
         rdf:resource="http://purl.org/dc/dcmitype/StillImage" /></cc:Work></rdf:RDF></metadata><defs
   id="defs989" /><sodipodi:namedview
   inkscape:current-layer="Capa_1"
   inkscape:window-maximized="1"
   inkscape:window-y="0"
   inkscape:window-x="0"
   inkscape:cy="48.4375"
   inkscape:cx="48.4375"
   inkscape:zoom="8.4541935"
   showgrid="false"
   id="namedview987"
   inkscape:window-height="1016"
   inkscape:window-width="1920"
   inkscape:pageshadow="2"
   inkscape:pageopacity="0"
   guidetolerance="10"
   gridtolerance="10"
   objecttolerance="10"
   borderopacity="1"
   bordercolor="#666666"
   pagecolor="#ffffff" />
    <g
   style="fill:#f9f9f9;fill-opacity:1"
   id="g984">
        <path
   style="fill:#f9f9f9;fill-opacity:1"
   id="path982"
   d="M 95.201,25.538 C 94.015,20.386 89.801,16.585 84.728,16.018 72.715,14.677 60.556,14.67 48.453,14.677 36.348,14.67 24.187,14.677 12.174,16.018 7.104,16.585 2.893,20.386 1.707,25.538 0.019,32.875 0,40.884 0,48.438 0,55.992 0,64 1.688,71.336 c 1.184,5.151 5.396,8.952 10.469,9.52 12.012,1.342 24.172,1.349 36.277,1.342 12.107,0.007 24.264,0 36.275,-1.342 5.07,-0.567 9.285,-4.368 10.471,-9.52 1.689,-7.337 1.695,-15.345 1.695,-22.898 0,-7.554 0.014,-15.563 -1.674,-22.9 z M 35.936,63.474 c 0,-10.716 0,-21.32 0,-32.037 10.267,5.357 20.466,10.678 30.798,16.068 -10.3,5.342 -20.504,10.631 -30.798,15.969 z" />
    </g>
</svg>
