<?xml version="1.0" encoding="UTF-8" standalone="no"?>
<!-- Created with Inkscape (http://www.inkscape.org/) -->

<svg
   xmlns:dc="http://purl.org/dc/elements/1.1/"
   xmlns:cc="http://creativecommons.org/ns#"
   xmlns:rdf="http://www.w3.org/1999/02/22-rdf-syntax-ns#"
   xmlns:svg="http://www.w3.org/2000/svg"
   xmlns="http://www.w3.org/2000/svg"
   xmlns:sodipodi="http://sodipodi.sourceforge.net/DTD/sodipodi-0.dtd"
   xmlns:inkscape="http://www.inkscape.org/namespaces/inkscape"
   width="60"
   height="60"
   id="svg2985"
   version="1.1"
   inkscape:version="0.48.5 r10040"
   sodipodi:docname="param_dims.svg"
   inkscape:export-filename="/nobackup/linazimov/payno/dev/esrf/ID06/id06workflow/resources/gui/icons/input.png"
   inkscape:export-xdpi="200"
   inkscape:export-ydpi="200">
  <defs
     id="defs2987">
    <marker
       inkscape:stockid="Arrow1Mend"
       orient="auto"
       refY="0.0"
       refX="0.0"
       id="Arrow1Mend"
       style="overflow:visible;">
      <path
         id="path3767"
         d="M 0.0,0.0 L 5.0,-5.0 L -12.5,0.0 L 5.0,5.0 L 0.0,0.0 z "
         style="fill-rule:evenodd;stroke:#000000;stroke-width:1.0pt;"
         transform="scale(0.4) rotate(180) translate(10,0)" />
    </marker>
    <marker
       inkscape:stockid="Arrow1Mstart"
       orient="auto"
       refY="0.0"
       refX="0.0"
       id="Arrow1Mstart"
       style="overflow:visible">
      <path
         id="path3764"
         d="M 0.0,0.0 L 5.0,-5.0 L -12.5,0.0 L 5.0,5.0 L 0.0,0.0 z "
         style="fill-rule:evenodd;stroke:#000000;stroke-width:1.0pt"
         transform="scale(0.4) translate(10,0)" />
    </marker>
    <marker
       inkscape:stockid="Arrow1Lstart"
       orient="auto"
       refY="0.0"
       refX="0.0"
       id="Arrow1Lstart"
       style="overflow:visible">
      <path
         id="path3758"
         d="M 0.0,0.0 L 5.0,-5.0 L -12.5,0.0 L 5.0,5.0 L 0.0,0.0 z "
         style="fill-rule:evenodd;stroke:#000000;stroke-width:1.0pt"
         transform="scale(0.8) translate(12.5,0)" />
    </marker>
  </defs>
  <sodipodi:namedview
     id="base"
     pagecolor="#ffffff"
     bordercolor="#666666"
     borderopacity="1.0"
     inkscape:pageopacity="0.0"
     inkscape:pageshadow="2"
     inkscape:zoom="7"
     inkscape:cx="-22.857143"
     inkscape:cy="24"
     inkscape:current-layer="g2991"
     showgrid="true"
     inkscape:grid-bbox="true"
     inkscape:document-units="px"
     inkscape:window-width="1920"
     inkscape:window-height="1098"
     inkscape:window-x="0"
     inkscape:window-y="31"
     inkscape:window-maximized="1" />
  <metadata
     id="metadata2990">
    <rdf:RDF>
      <cc:Work
         rdf:about="">
        <dc:format>image/svg+xml</dc:format>
        <dc:type
           rdf:resource="http://purl.org/dc/dcmitype/StillImage" />
        <dc:title />
      </cc:Work>
    </rdf:RDF>
  </metadata>
  <g
     id="layer1"
     inkscape:label="Layer 1"
     inkscape:groupmode="layer"
     transform="translate(0,12)">
    <g
       id="surface1"
       transform="matrix(0.63721993,0,0,0.67143235,2.5661146,13.000098)"
       inkscape:export-filename="/nobackup/linazimov/payno/dev/esrf/ID06/id06workflow/resources/gui/icons/parameters.png"
       inkscape:export-xdpi="200"
       inkscape:export-ydpi="200"
       style="opacity:0.5">
      <path
         id="path3157"
         d="M 40.25,0 C 39.902344,-0.0117188 39.566406,0.15625 39.375,0.46875 L 37.78125,3.0625 c -0.539062,-0.042969 -1.058594,-0.046875 -1.59375,0 L 34.5625,0.5 C 34.300781,0.0859375 33.761719,-0.0625 33.3125,0.125 L 30.5,1.3125 C 30.054688,1.5 29.796875,1.996094 29.90625,2.46875 l 0.6875,2.96875 C 30.179688,5.792969 29.789063,6.175781 29.4375,6.59375 l -2.96875,-0.6875 c -0.484375,-0.109375 -0.941406,0.171875 -1.125,0.625 L 24.1875,9.375 c -0.183594,0.449219 -0.03516,0.960938 0.375,1.21875 l 2.5625,1.59375 c -0.04297,0.542969 -0.01953,1.113281 0.03125,1.65625 l -2.5625,1.59375 c -0.414062,0.261719 -0.566406,0.800781 -0.375,1.25 l 1.1875,2.8125 c 0.1875,0.445313 0.652344,0.707031 1.125,0.59375 L 29.5,19.4375 c 0.351563,0.410156 0.738281,0.777344 1.15625,1.125 L 30,23.53125 c -0.105469,0.476563 0.140625,0.972656 0.59375,1.15625 l 2.84375,1.15625 c 0.121094,0.05078 0.25,0.0625 0.375,0.0625 0.335938,0 0.65625,-0.171875 0.84375,-0.46875 l 1.65625,-2.59375 c 0.542969,0.03906 1.089844,0.01953 1.625,-0.03125 l 1.65625,2.59375 c 0.265625,0.40625 0.773438,0.5625 1.21875,0.375 l 2.84375,-1.1875 c 0.453125,-0.191406 0.675781,-0.679687 0.5625,-1.15625 L 43.5,20.46875 c 0.402344,-0.347656 0.78125,-0.746094 1.125,-1.15625 l 3,0.65625 c 0.484375,0.105469 0.972656,-0.144531 1.15625,-0.59375 l 1.15625,-2.84375 c 0.183594,-0.457031 0.01172,-0.996094 -0.40625,-1.25 l -2.625,-1.59375 c 0.03906,-0.53125 0.04687,-1.0625 0,-1.59375 l 2.5625,-1.6875 C 49.875,10.144531 50.0625,9.632813 49.875,9.1875 L 48.65625,6.375 C 48.46875,5.925781 47.984375,5.667969 47.5,5.78125 L 44.53125,6.5 C 44.179688,6.089844 43.820313,5.722656 43.40625,5.375 l 0.625,-3 C 44.132813,1.898438 43.886719,1.402344 43.4375,1.21875 L 40.59375,0.0625 C 40.480469,0.015625 40.367188,0.00390625 40.25,0 z M 37,8.875 c 0.53125,-0.00781 1.070313,0.070313 1.59375,0.28125 2.09375,0.851563 3.101563,3.25 2.25,5.34375 -0.851562,2.09375 -3.25,3.101563 -5.34375,2.25 C 33.40625,15.898438 32.398438,13.5 33.25,11.40625 33.890625,9.835938 35.40625,8.898438 37,8.875 z M 14.53125,17 c -0.488281,0 -0.921875,0.359375 -1,0.84375 l -0.625,3.9375 c -0.742187,0.226563 -1.476562,0.515625 -2.15625,0.875 L 7.5,20.34375 c -0.398437,-0.285156 -0.933594,-0.25 -1.28125,0.09375 l -2.75,2.75 C 3.125,23.53125 3.097656,24.070313 3.375,24.46875 L 5.65625,27.75 C 5.289063,28.4375 4.980469,29.160156 4.75,29.90625 l -3.90625,0.625 C 0.359375,30.613281 0,31.042969 0,31.53125 l 0,3.875 c 0,0.484375 0.335938,0.914063 0.8125,1 L 4.75,37.09375 C 4.980469,37.839844 5.289063,38.5625 5.65625,39.25 l -2.3125,3.25 c -0.285156,0.398438 -0.253906,0.933594 0.09375,1.28125 l 2.75,2.75 C 6.53125,46.875 7.070313,46.902344 7.46875,46.625 L 10.75,44.34375 c 0.683594,0.363281 1.382813,0.648438 2.125,0.875 l 0.65625,3.9375 c 0.07813,0.480469 0.511719,0.84375 1,0.84375 l 3.875,0 c 0.484375,0 0.914063,-0.335937 1,-0.8125 l 0.6875,-4 c 0.742188,-0.230469 1.445313,-0.511719 2.125,-0.875 l 3.3125,2.3125 c 0.398438,0.277344 0.9375,0.25 1.28125,-0.09375 l 2.75,-2.75 c 0.347656,-0.347656 0.378906,-0.914062 0.09375,-1.3125 l -2.34375,-3.25 c 0.359375,-0.679687 0.648438,-1.394531 0.875,-2.125 l 4,-0.6875 C 32.667969,36.32031 33,35.890625 33,35.40625 l 0,-3.875 C 33,31.042969 32.640625,30.640625 32.15625,30.5625 L 28.1875,29.90625 c -0.226562,-0.730469 -0.515625,-1.445312 -0.875,-2.125 l 2.3125,-3.3125 c 0.277344,-0.398437 0.25,-0.9375 -0.09375,-1.28125 l -2.75,-2.75 C 26.433594,20.089844 25.898438,20.058594 25.5,20.34375 l -3.28125,2.34375 c -0.683594,-0.363281 -1.386719,-0.648437 -2.125,-0.875 l -0.6875,-3.96875 C 19.324219,17.363281 18.890625,17 18.40625,17 z M 16.5,28.34375 c 2.855469,0 5.15625,2.300781 5.15625,5.15625 0,2.855469 -2.304687,5.15625 -5.15625,5.15625 -2.851562,0 -5.15625,-2.300781 -5.15625,-5.15625 0,-2.855469 2.300781,-5.15625 5.15625,-5.15625 z"
         inkscape:connector-curvature="0" />
    </g>
    <g
       id="g2991">
      <path
         style="font-size:medium;font-style:normal;font-variant:normal;font-weight:normal;font-stretch:normal;text-indent:0;text-align:start;text-decoration:none;line-height:normal;letter-spacing:normal;word-spacing:normal;text-transform:none;direction:ltr;block-progression:tb;writing-mode:lr-tb;text-anchor:start;baseline-shift:baseline;color:#000000;fill:#000000;fill-opacity:0.80748668;stroke:none;stroke-width:1.04999995;marker:none;visibility:visible;display:inline;overflow:visible;enable-background:accumulate;font-family:Sans;-inkscape-font-specification:Sans"
         d="m 25.3125,-6.1875 1.0625,0 0,-2.09375 -1.03125,0 z m 0,3.15625 1.0625,0 0,-2.09375 -1.0625,0 z m 0,3.15625 1.03125,0 0,-2.09375 L 25.3125,-2 z m -0.03125,3.125 1.0625,0.03125 0,-2.125 -1.0625,0 z m 0,3.15625 1.03125,0 0.03125,-2.09375 -1.0625,0 z M 25.25,9.5625 l 1.0625,0 0,-2.09375 -1.03125,0 z m 0,3.15625 1.0625,0 0,-2.09375 -1.0625,0 z m 0,3.15625 1.03125,0 L 26.3125,13.78125 25.25,13.75 z M 25.21875,19 l 1.0625,0.03125 0,-2.125 -1.03125,0 z m 0,3.15625 1.0625,0 0,-2.09375 -1.0625,0 z m 0,3.15625 1.03125,0 0,-2.09375 -1.03125,0 z m -0.03125,3.15625 1.0625,0 0,-2.09375 -1.0625,0 z m 31.96875,0.3125 0,1.03125 0.84375,0 0,-1.0625 z M 54,29.84375 56.125,29.8125 56.09375,28.78125 54,28.78125 z m -3.125,0.03125 2.09375,-0.03125 -0.03125,-1.03125 -2.09375,0 z m -3.15625,0.03125 2.09375,-0.03125 0,-1.03125 -2.125,0 z m -6.3125,-1 0,1.0625 2.09375,-0.03125 0,-1.0625 z m 3.15625,1.03125 2.09375,-0.03125 0,-1.03125 -2.09375,0 z m -6.3125,-1 0,1.0625 2.125,-0.03125 -0.03125,-1.0625 z M 35.09375,28.96875 35.125,30 37.21875,30 37.1875,28.9375 z M 31.9375,29 l 0.03125,1.03125 2.09375,0 0,-1.0625 z m -3.125,0.03125 0,1.03125 2.09375,0 0,-1.0625 z M 25.71875,29.5 l -0.53125,0 0,0.0625 0,0.53125 0.53125,0 2.03125,0 0,-1.0625 -2.03125,0 z"
         id="path2984"
         inkscape:connector-curvature="0" />
      <path
         style="fill-rule:evenodd;stroke:#000000;stroke-width:0.41999998pt"
         d="m 25.841294,-4.0857444 2.092061,2.1079094 -2.07225,-7.3578718 -2.12772,7.3420229 2.107909,-2.0920605 z"
         id="path2997"
         inkscape:connector-curvature="0" />
      <path
         style="fill-rule:evenodd;stroke:#000000;stroke-width:0.41999998pt"
         d="m 53.800165,29.322881 -2.081335,2.118501 7.331129,-2.16496 -7.368295,-2.034876 2.118501,2.081335 z"
         id="path2999"
         inkscape:connector-curvature="0" />
    </g>
  </g>
</svg>
