{
    "asset" : {
        "generator" : "Khronos glTF Blender I/O v1.3.48",
        "version" : "2.0"
    },
    "scene" : 0,
    "scenes" : [
        {
            "name" : "Scene",
            "nodes" : [
                0,
                1,
                2,
                3,
                4,
                5,
                6,
                7,
                8,
                9,
                10
            ]
        }
    ],
    "nodes" : [
        {
            "name" : "Light",
            "rotation" : [
                0.16907575726509094,
                0.27217137813568115,
                0.7558803558349609,
                0.570947527885437
            ],
            "translation" : [
                4.076245307922363,
                1.0054539442062378,
                5.903861999511719
            ]
        },
        {
            "camera" : 0,
            "name" : "Camera",
            "rotation" : [
                0.483536034822464,
                0.20870360732078552,
                0.33687159419059753,
                0.7804827094078064
            ],
            "translation" : [
                7.358891487121582,
                -6.925790786743164,
                4.958309173583984
            ]
        },
        {
            "mesh" : 0,
            "name" : "Bottom",
            "rotation" : [
                0.7071068286895752,
                0,
                0,
                0.7071067094802856
            ]
        },
        {
            "mesh" : 1,
            "name" : "Support",
            "rotation" : [
                0.7071068286895752,
                0,
                0,
                0.7071067094802856
            ]
        },
        {
            "mesh" : 2,
            "name" : "HorizontalBeam_Beam.001",
            "rotation" : [
                0.7071068286895752,
                0,
                0,
                0.7071067094802856
            ]
        },
        {
            "mesh" : 3,
            "name" : "VerticalBeam_Beam.000",
            "rotation" : [
                0.7071068286895752,
                0,
                0,
                0.7071067094802856
            ]
        },
        {
            "mesh" : 4,
            "name" : "Cylinder.000",
            "rotation" : [
                0.7071068286895752,
                0,
                0,
                0.7071067094802856
            ]
        },
        {
            "mesh" : 5,
            "name" : "Cube.001",
            "rotation" : [
                0.7071068286895752,
                0,
                0,
                0.7071067094802856
            ]
        },
        {
            "mesh" : 6,
            "name" : "Cylinder.001",
            "rotation" : [
                0.7071068286895752,
                0,
                0,
                0.7071067094802856
            ]
        },
        {
            "mesh" : 7,
            "name" : "Cylinder.002",
            "rotation" : [
                0.7071068286895752,
                0,
                0,
                0.7071067094802856
            ]
        },
        {
            "mesh" : 8,
            "name" : "Cylinder.003",
            "rotation" : [
                0.7071068286895752,
                0,
                0,
                0.7071067094802856
            ]
        }
    ],
    "cameras" : [
        {
            "name" : "Camera",
            "perspective" : {
                "aspectRatio" : 1.7777777777777777,
                "yfov" : 0.39959648408210363,
                "zfar" : 100,
                "znear" : 0.10000000149011612
            },
            "type" : "perspective"
        }
    ],
    "materials" : [
        {
            "doubleSided" : true,
            "emissiveFactor" : [
                0,
                0,
                0
            ],
            "name" : "Metal",
            "pbrMetallicRoughness" : {
                "baseColorFactor" : [
                    0.32158198952674866,
                    0.32158198952674866,
                    0.32158198952674866,
                    1
                ],
                "metallicFactor" : 0,
                "roughnessFactor" : 0.6732679605484009
            }
        },
        {
            "doubleSided" : true,
            "emissiveFactor" : [
                0,
                0,
                0
            ],
            "name" : "LightCover",
            "pbrMetallicRoughness" : {
                "baseColorTexture" : {
                    "index" : 0,
                    "texCoord" : 0
                },
                "metallicFactor" : 0,
                "roughnessFactor" : 0.6766191720962524
            }
        },
        {
            "doubleSided" : true,
            "emissiveFactor" : [
                0,
                0,
                0
            ],
            "name" : "Cardboard",
            "pbrMetallicRoughness" : {
                "baseColorTexture" : {
                    "index" : 1,
                    "texCoord" : 0
                },
                "metallicFactor" : 0,
                "roughnessFactor" : 0.6766191720962524
            }
        }
    ],
    "meshes" : [
        {
            "name" : "Bottom",
            "primitives" : [
                {
                    "attributes" : {
                        "POSITION" : 0,
                        "NORMAL" : 1,
                        "TEXCOORD_0" : 2
                    },
                    "indices" : 3,
                    "material" : 0
                }
            ]
        },
        {
            "name" : "Support",
            "primitives" : [
                {
                    "attributes" : {
                        "POSITION" : 4,
                        "NORMAL" : 5,
                        "TEXCOORD_0" : 6
                    },
                    "indices" : 7,
                    "material" : 0
                }
            ]
        },
        {
            "name" : "HorizontalBeam_Beam.001",
            "primitives" : [
                {
                    "attributes" : {
                        "POSITION" : 8,
                        "NORMAL" : 9,
                        "TEXCOORD_0" : 10
                    },
                    "indices" : 11,
                    "material" : 0
                }
            ]
        },
        {
            "name" : "VerticalBeam_Beam.000",
            "primitives" : [
                {
                    "attributes" : {
                        "POSITION" : 12,
                        "NORMAL" : 13,
                        "TEXCOORD_0" : 14
                    },
                    "indices" : 15,
                    "material" : 0
                }
            ]
        },
        {
            "name" : "Cylinder.000",
            "primitives" : [
                {
                    "attributes" : {
                        "POSITION" : 16,
                        "NORMAL" : 17,
                        "TEXCOORD_0" : 18
                    },
                    "indices" : 19,
                    "material" : 1
                }
            ]
        },
        {
            "name" : "Cube.001",
            "primitives" : [
                {
                    "attributes" : {
                        "POSITION" : 20,
                        "NORMAL" : 21,
                        "TEXCOORD_0" : 22
                    },
                    "indices" : 23,
                    "material" : 2
                }
            ]
        },
        {
            "name" : "Cylinder.001",
            "primitives" : [
                {
                    "attributes" : {
                        "POSITION" : 24,
                        "NORMAL" : 25,
                        "TEXCOORD_0" : 26
                    },
                    "indices" : 27,
                    "material" : 1
                }
            ]
        },
        {
            "name" : "Cylinder.002",
            "primitives" : [
                {
                    "attributes" : {
                        "POSITION" : 28,
                        "NORMAL" : 29,
                        "TEXCOORD_0" : 30
                    },
                    "indices" : 31,
                    "material" : 1
                }
            ]
        },
        {
            "name" : "Cylinder.003",
            "primitives" : [
                {
                    "attributes" : {
                        "POSITION" : 32,
                        "NORMAL" : 33,
                        "TEXCOORD_0" : 34
                    },
                    "indices" : 35,
                    "material" : 1
                }
            ]
        }
    ],
    "textures" : [
        {
            "source" : 0
        },
        {
            "source" : 1
        }
    ],
    "images" : [
        {
            "mimeType" : "image/jpeg",
            "name" : "trafficlight_cover",
            "uri" : "trafficlight_cover.jpg"
        },
        {
            "mimeType" : "image/jpeg",
            "name" : "trafficlight_card",
            "uri" : "trafficlight_card.jpg"
        }
    ],
    "accessors" : [
        {
            "bufferView" : 0,
            "componentType" : 5126,
            "count" : 24,
            "max" : [
                0.039333000779151917,
                -0.005772000178694725,
                0.16447199881076813
            ],
            "min" : [
                -0.039333000779151917,
                -0.014438999816775322,
                0.07580500096082687
            ],
            "type" : "VEC3"
        },
        {
            "bufferView" : 1,
            "componentType" : 5126,
            "count" : 24,
            "type" : "VEC3"
        },
        {
            "bufferView" : 2,
            "componentType" : 5126,
            "count" : 24,
            "type" : "VEC2"
        },
        {
            "bufferView" : 3,
            "componentType" : 5123,
            "count" : 36,
            "type" : "SCALAR"
        },
        {
            "bufferView" : 4,
            "componentType" : 5126,
            "count" : 88,
            "max" : [
                0.011862000450491905,
                0.24243199825286865,
                0.19392900168895721
            ],
            "min" : [
                -0.012555999681353569,
                0.20276999473571777,
                0.15426400303840637
            ],
            "type" : "VEC3"
        },
        {
            "bufferView" : 5,
            "componentType" : 5126,
            "count" : 88,
            "type" : "VEC3"
        },
        {
            "bufferView" : 6,
            "componentType" : 5126,
            "count" : 88,
            "type" : "VEC2"
        },
        {
            "bufferView" : 7,
            "componentType" : 5123,
            "count" : 144,
            "type" : "SCALAR"
        },
        {
            "bufferView" : 8,
            "componentType" : 5126,
            "count" : 276,
            "max" : [
                0.012500000186264515,
                0.26744699478149414,
                0.6293630003929138
            ],
            "min" : [
                -0.012500000186264515,
                0.24244700372219086,
                0.1543630063533783
            ],
            "type" : "VEC3"
        },
        {
            "bufferView" : 9,
            "componentType" : 5126,
            "count" : 276,
            "type" : "VEC3"
        },
        {
            "bufferView" : 10,
            "componentType" : 5126,
            "count" : 276,
            "type" : "VEC2"
        },
        {
            "bufferView" : 11,
            "componentType" : 5123,
            "count" : 1116,
            "type" : "SCALAR"
        },
        {
            "bufferView" : 12,
            "componentType" : 5126,
            "count" : 276,
            "max" : [
                0.012500000186264515,
                0.3510189950466156,
                0.1542530059814453
            ],
            "min" : [
                -0.012500000186264515,
                -0.005169000010937452,
                0.12925300002098083
            ],
            "type" : "VEC3"
        },
        {
            "bufferView" : 13,
            "componentType" : 5126,
            "count" : 276,
            "type" : "VEC3"
        },
        {
            "bufferView" : 14,
            "componentType" : 5126,
            "count" : 276,
            "type" : "VEC2"
        },
        {
            "bufferView" : 15,
            "componentType" : 5123,
            "count" : 1116,
            "type" : "SCALAR"
        },
        {
            "bufferView" : 16,
            "componentType" : 5126,
            "count" : 66,
            "max" : [
                -0.012415999546647072,
                0.21250499784946442,
                0.6478919982910156
            ],
            "min" : [
                -0.044704001396894455,
                0.192672997713089,
                0.6156049966812134
            ],
            "type" : "VEC3"
        },
        {
            "bufferView" : 17,
            "componentType" : 5126,
            "count" : 66,
            "type" : "VEC3"
        },
        {
            "bufferView" : 18,
            "componentType" : 5126,
            "count" : 66,
            "type" : "VEC2"
        },
        {
            "bufferView" : 19,
            "componentType" : 5123,
            "count" : 240,
            "type" : "SCALAR"
        },
        {
            "bufferView" : 20,
            "componentType" : 5126,
            "count" : 90,
            "max" : [
                0.05648700147867203,
                0.24258899688720703,
                0.6592230200767517
            ],
            "min" : [
                -0.05648700147867203,
                0.16258899867534637,
                0.5462499856948853
            ],
            "type" : "VEC3"
        },
        {
            "bufferView" : 21,
            "componentType" : 5126,
            "count" : 90,
            "type" : "VEC3"
        },
        {
            "bufferView" : 22,
            "componentType" : 5126,
            "count" : 90,
            "type" : "VEC2"
        },
        {
            "bufferView" : 23,
            "componentType" : 5123,
            "count" : 384,
            "type" : "SCALAR"
        },
        {
            "bufferView" : 24,
            "componentType" : 5126,
            "count" : 66,
            "max" : [
                0.04465299844741821,
                0.21221399307250977,
                0.6463590264320374
            ],
            "min" : [
                0.012137000449001789,
                0.19296400249004364,
                0.6138430237770081
            ],
            "type" : "VEC3"
        },
        {
            "bufferView" : 25,
            "componentType" : 5126,
            "count" : 66,
            "type" : "VEC3"
        },
        {
            "bufferView" : 26,
            "componentType" : 5126,
            "count" : 66,
            "type" : "VEC2"
        },
        {
            "bufferView" : 27,
            "componentType" : 5123,
            "count" : 240,
            "type" : "SCALAR"
        },
        {
            "bufferView" : 28,
            "componentType" : 5126,
            "count" : 66,
            "max" : [
                -0.01246699970215559,
                0.21250499784946442,
                0.5900020003318787
            ],
            "min" : [
                -0.0447550006210804,
                0.192672997713089,
                0.5577149987220764
            ],
            "type" : "VEC3"
        },
        {
            "bufferView" : 29,
            "componentType" : 5126,
            "count" : 66,
            "type" : "VEC3"
        },
        {
            "bufferView" : 30,
            "componentType" : 5126,
            "count" : 66,
            "type" : "VEC2"
        },
        {
            "bufferView" : 31,
            "componentType" : 5123,
            "count" : 240,
            "type" : "SCALAR"
        },
        {
            "bufferView" : 32,
            "componentType" : 5126,
            "count" : 66,
            "max" : [
                0.044179998338222504,
                0.21209999918937683,
                0.5912590026855469
            ],
            "min" : [
                0.011652999557554722,
                0.19307899475097656,
                0.5587319731712341
            ],
            "type" : "VEC3"
        },
        {
            "bufferView" : 33,
            "componentType" : 5126,
            "count" : 66,
            "type" : "VEC3"
        },
        {
            "bufferView" : 34,
            "componentType" : 5126,
            "count" : 66,
            "type" : "VEC2"
        },
        {
            "bufferView" : 35,
            "componentType" : 5123,
            "count" : 240,
            "type" : "SCALAR"
        }
    ],
    "bufferViews" : [
        {
            "buffer" : 0,
            "byteLength" : 288,
            "byteOffset" : 0
        },
        {
            "buffer" : 0,
            "byteLength" : 288,
            "byteOffset" : 288
        },
        {
            "buffer" : 0,
            "byteLength" : 192,
            "byteOffset" : 576
        },
        {
            "buffer" : 0,
            "byteLength" : 72,
            "byteOffset" : 768
        },
        {
            "buffer" : 0,
            "byteLength" : 1056,
            "byteOffset" : 840
        },
        {
            "buffer" : 0,
            "byteLength" : 1056,
            "byteOffset" : 1896
        },
        {
            "buffer" : 0,
            "byteLength" : 704,
            "byteOffset" : 2952
        },
        {
            "buffer" : 0,
            "byteLength" : 288,
            "byteOffset" : 3656
        },
        {
            "buffer" : 0,
            "byteLength" : 3312,
            "byteOffset" : 3944
        },
        {
            "buffer" : 0,
            "byteLength" : 3312,
            "byteOffset" : 7256
        },
        {
            "buffer" : 0,
            "byteLength" : 2208,
            "byteOffset" : 10568
        },
        {
            "buffer" : 0,
            "byteLength" : 2232,
            "byteOffset" : 12776
        },
        {
            "buffer" : 0,
            "byteLength" : 3312,
            "byteOffset" : 15008
        },
        {
            "buffer" : 0,
            "byteLength" : 3312,
            "byteOffset" : 18320
        },
        {
            "buffer" : 0,
            "byteLength" : 2208,
            "byteOffset" : 21632
        },
        {
            "buffer" : 0,
            "byteLength" : 2232,
            "byteOffset" : 23840
        },
        {
            "buffer" : 0,
            "byteLength" : 792,
            "byteOffset" : 26072
        },
        {
            "buffer" : 0,
            "byteLength" : 792,
            "byteOffset" : 26864
        },
        {
            "buffer" : 0,
            "byteLength" : 528,
            "byteOffset" : 27656
        },
        {
            "buffer" : 0,
            "byteLength" : 480,
            "byteOffset" : 28184
        },
        {
            "buffer" : 0,
            "byteLength" : 1080,
            "byteOffset" : 28664
        },
        {
            "buffer" : 0,
            "byteLength" : 1080,
            "byteOffset" : 29744
        },
        {
            "buffer" : 0,
            "byteLength" : 720,
            "byteOffset" : 30824
        },
        {
            "buffer" : 0,
            "byteLength" : 768,
            "byteOffset" : 31544
        },
        {
            "buffer" : 0,
            "byteLength" : 792,
            "byteOffset" : 32312
        },
        {
            "buffer" : 0,
            "byteLength" : 792,
            "byteOffset" : 33104
        },
        {
            "buffer" : 0,
            "byteLength" : 528,
            "byteOffset" : 33896
        },
        {
            "buffer" : 0,
            "byteLength" : 480,
            "byteOffset" : 34424
        },
        {
            "buffer" : 0,
            "byteLength" : 792,
            "byteOffset" : 34904
        },
        {
            "buffer" : 0,
            "byteLength" : 792,
            "byteOffset" : 35696
        },
        {
            "buffer" : 0,
            "byteLength" : 528,
            "byteOffset" : 36488
        },
        {
            "buffer" : 0,
            "byteLength" : 480,
            "byteOffset" : 37016
        },
        {
            "buffer" : 0,
            "byteLength" : 792,
            "byteOffset" : 37496
        },
        {
            "buffer" : 0,
            "byteLength" : 792,
            "byteOffset" : 38288
        },
        {
            "buffer" : 0,
            "byteLength" : 528,
            "byteOffset" : 39080
        },
        {
            "buffer" : 0,
            "byteLength" : 480,
            "byteOffset" : 39608
        }
    ],
    "buffers" : [
        {
            "byteLength" : 40088,
            "uri" : "main.bin"
        }
    ]
}
