{
    "asset" : {
        "generator" : "Khronos glTF Blender I/O v1.3.48",
        "version" : "2.0"
    },
    "scene" : 0,
    "scenes" : [
        {
            "name" : "Scene",
            "nodes" : [
                3
            ]
        }
    ],
    "nodes" : [
        {
            "mesh" : 0,
            "name" : "panel",
            "rotation" : [
                -0.006108678411692381,
                0,
                0,
                0.9999813437461853
            ],
            "translation" : [
                0,
                -0.0007941219955682755,
                -0.06499514728784561
            ]
        },
        {
            "mesh" : 1,
            "name" : "pole",
            "rotation" : [
                -0.006108678411692381,
                0,
                0,
                0.9999813437461853
            ]
        },
        {
            "mesh" : 2,
            "name" : "support",
            "rotation" : [
                -0.006108678411692381,
                0,
                0,
                0.9999813437461853
            ],
            "translation" : [
                0,
                -0.0007941219955682755,
                -0.06499514728784561
            ]
        },
        {
            "children" : [
                0,
                1,
                2
            ],
            "mesh" : 3,
            "name" : "base",
            "translation" : [
                -0.028667636215686798,
                -0.02500000037252903,
                0
            ]
        }
    ],
    "materials" : [
        {
            "doubleSided" : true,
            "emissiveFactor" : [
                0,
                0,
                0
            ],
            "name" : "April_Tag",
            "pbrMetallicRoughness" : {
                "baseColorTexture" : {
                    "index" : 0,
                    "texCoord" : 0
                },
                "metallicFactor" : 0,
                "roughnessFactor" : 0.6732679605484009
            }
        },
        {
            "doubleSided" : true,
            "emissiveFactor" : [
                0,
                0,
                0
            ],
            "name" : "Wood_OSB",
            "pbrMetallicRoughness" : {
                "baseColorTexture" : {
                    "index" : 1,
                    "texCoord" : 0
                },
                "metallicFactor" : 0,
                "roughnessFactor" : 0.6732679605484009
            }
        },
        {
            "doubleSided" : true,
            "emissiveFactor" : [
                0,
                0,
                0
            ],
            "name" : "Color_G13",
            "pbrMetallicRoughness" : {
                "baseColorFactor" : [
                    0.23921599984169006,
                    0.6000000238418579,
                    0.23921599984169006,
                    1
                ],
                "metallicFactor" : 0,
                "roughnessFactor" : 0.6732679605484009
            }
        }
    ],
    "meshes" : [
        {
            "name" : "SketchUp.003_ID31",
            "primitives" : [
                {
                    "attributes" : {
                        "POSITION" : 0,
                        "NORMAL" : 1,
                        "TEXCOORD_0" : 2
                    },
                    "indices" : 3,
                    "material" : 0
                }
            ]
        },
        {
            "name" : "SketchUp.001_ID10",
            "primitives" : [
                {
                    "attributes" : {
                        "POSITION" : 4,
                        "NORMAL" : 5,
                        "TEXCOORD_0" : 6
                    },
                    "indices" : 7,
                    "material" : 1
                }
            ]
        },
        {
            "name" : "SketchUp.002_ID23",
            "primitives" : [
                {
                    "attributes" : {
                        "POSITION" : 8,
                        "NORMAL" : 9,
                        "TEXCOORD_0" : 10
                    },
                    "indices" : 11,
                    "material" : 1
                }
            ]
        },
        {
            "name" : "base",
            "primitives" : [
                {
                    "attributes" : {
                        "POSITION" : 12,
                        "NORMAL" : 13,
                        "TEXCOORD_0" : 14
                    },
                    "indices" : 15,
                    "material" : 2
                }
            ]
        }
    ],
    "textures" : [
        {
            "source" : 0
        },
        {
            "source" : 1
        }
    ],
    "images" : [
        {
            "mimeType" : "image/jpeg",
            "name" : "sign_4_way_intersect",
            "uri" : "textures/sign_4_way_intersect.jpg"
        },
        {
            "mimeType" : "image/jpeg",
            "name" : "wood_osb",
            "uri" : "textures/wood_osb.jpg"
        }
    ],
    "accessors" : [
        {
            "bufferView" : 0,
            "componentType" : 5126,
            "count" : 4,
            "max" : [
                0.03254399821162224,
                0.05790000036358833,
                0.23010000586509705
            ],
            "min" : [
                0.03254399821162224,
                -0.0071000000461936,
                0.10010000318288803
            ],
            "type" : "VEC3"
        },
        {
            "bufferView" : 1,
            "componentType" : 5126,
            "count" : 4,
            "type" : "VEC3"
        },
        {
            "bufferView" : 2,
            "componentType" : 5126,
            "count" : 4,
            "type" : "VEC2"
        },
        {
            "bufferView" : 3,
            "componentType" : 5123,
            "count" : 6,
            "type" : "SCALAR"
        },
        {
            "bufferView" : 4,
            "componentType" : 5126,
            "count" : 163,
            "max" : [
                0.03175000101327896,
                0.03175000101327896,
                0.16509999334812164
            ],
            "min" : [
                0.019050000235438347,
                0.019050000235438347,
                0.01269999984651804
            ],
            "type" : "VEC3"
        },
        {
            "bufferView" : 5,
            "componentType" : 5126,
            "count" : 163,
            "type" : "VEC3"
        },
        {
            "bufferView" : 6,
            "componentType" : 5126,
            "count" : 163,
            "type" : "VEC2"
        },
        {
            "bufferView" : 7,
            "componentType" : 5123,
            "count" : 228,
            "type" : "SCALAR"
        },
        {
            "bufferView" : 8,
            "componentType" : 5126,
            "count" : 42,
            "max" : [
                0.03254399821162224,
                0.05790000036358833,
                0.23010000586509705
            ],
            "min" : [
                0.02539999969303608,
                -0.0071000000461936,
                0.10010000318288803
            ],
            "type" : "VEC3"
        },
        {
            "bufferView" : 9,
            "componentType" : 5126,
            "count" : 42,
            "type" : "VEC3"
        },
        {
            "bufferView" : 10,
            "componentType" : 5126,
            "count" : 42,
            "type" : "VEC2"
        },
        {
            "bufferView" : 11,
            "componentType" : 5123,
            "count" : 48,
            "type" : "SCALAR"
        },
        {
            "bufferView" : 12,
            "componentType" : 5126,
            "count" : 92,
            "max" : [
                0.05079999938607216,
                0.05079999938607216,
                0.01269999984651804
            ],
            "min" : [
                0,
                0,
                0
            ],
            "type" : "VEC3"
        },
        {
            "bufferView" : 13,
            "componentType" : 5126,
            "count" : 92,
            "type" : "VEC3"
        },
        {
            "bufferView" : 14,
            "componentType" : 5126,
            "count" : 92,
            "type" : "VEC2"
        },
        {
            "bufferView" : 15,
            "componentType" : 5123,
            "count" : 114,
            "type" : "SCALAR"
        }
    ],
    "bufferViews" : [
        {
            "buffer" : 0,
            "byteLength" : 48,
            "byteOffset" : 0
        },
        {
            "buffer" : 0,
            "byteLength" : 48,
            "byteOffset" : 48
        },
        {
            "buffer" : 0,
            "byteLength" : 32,
            "byteOffset" : 96
        },
        {
            "buffer" : 0,
            "byteLength" : 12,
            "byteOffset" : 128
        },
        {
            "buffer" : 0,
            "byteLength" : 1956,
            "byteOffset" : 140
        },
        {
            "buffer" : 0,
            "byteLength" : 1956,
            "byteOffset" : 2096
        },
        {
            "buffer" : 0,
            "byteLength" : 1304,
            "byteOffset" : 4052
        },
        {
            "buffer" : 0,
            "byteLength" : 456,
            "byteOffset" : 5356
        },
        {
            "buffer" : 0,
            "byteLength" : 504,
            "byteOffset" : 5812
        },
        {
            "buffer" : 0,
            "byteLength" : 504,
            "byteOffset" : 6316
        },
        {
            "buffer" : 0,
            "byteLength" : 336,
            "byteOffset" : 6820
        },
        {
            "buffer" : 0,
            "byteLength" : 96,
            "byteOffset" : 7156
        },
        {
            "buffer" : 0,
            "byteLength" : 1104,
            "byteOffset" : 7252
        },
        {
            "buffer" : 0,
            "byteLength" : 1104,
            "byteOffset" : 8356
        },
        {
            "buffer" : 0,
            "byteLength" : 736,
            "byteOffset" : 9460
        },
        {
            "buffer" : 0,
            "byteLength" : 228,
            "byteOffset" : 10196
        }
    ],
    "buffers" : [
        {
            "byteLength" : 10424,
            "uri" : "main.bin"
        }
    ]
}
